` tags.

```xml
<replit_final_file>
<svg width="32" height="32" viewBox="0 0 32 32" xmlns="http://www.w3.org/2000/svg">
  <defs>
    <linearGradient id="goldGradient" x1="0%" y1="0%" x2="100%" y2="100%">
      <stop offset="0%" style="stop-color:#FFD700;stop-opacity:1" />
      <stop offset="50%" style="stop-color:#FFA500;stop-opacity:1" />
      <stop offset="100%" style="stop-color:#B8860B;stop-opacity:1" />
    </linearGradient>
    <linearGradient id="bgGradient" x1="0%" y1="0%" x2="100%" y2="100%">
      <stop offset="0%" style="stop-color:#2C5530;stop-opacity:1" />
      <stop offset="100%" style="stop-color:#1B3A1F;stop-opacity:1" />
    </linearGradient>
    <filter id="shadow" x="-20%" y="-20%" width="140%" height="140%">
      <feDropShadow dx="1" dy="1" stdDeviation="1" flood-opacity="0.3"/>
    </filter>
  </defs>

  <!-- Background -->
  <rect width="32" height="32" rx="6" fill="url(#bgGradient)"/>

  <!-- Kaaba structure -->
  <g transform="translate(16,16)">
    <!-- Main building base -->
    <rect x="-8" y="-2" width="16" height="8" fill="url(#goldGradient)" stroke="#B8860B" stroke-width="0.5"/>

    <!-- Top structure -->
    <rect x="-6" y="-6" width="12" height="4" fill="#F5F5F5" stroke="url(#goldGradient)" stroke-width="0.5"/>

    <!-- Central dome/tower -->
    <rect x="-2" y="-10" width="4" height="4" fill="url(#goldGradient)"/>

    <!-- Side buildings -->
    <rect x="-12" y="-1" width="3" height="6" fill="#E6E6E6" opacity="0.8"/>
    <rect x="9" y="0" width="3" height="5" fill="#E6E6E6" opacity="0.8"/>

    <!-- Windows/details -->
    <rect x="-6" y="-4" width="1.5" height="1.5" fill="#2C5530"/>
    <rect x="-2" y="-4" width="1.5" height="1.5" fill="#2C5530"/>
    <rect x="2.5" y="-4" width="1.5" height="1.5" fill="#2C5530"/>

    <!-- Small decorative elements -->
    <circle cx="-10" cy="-8" r="1" fill="url(#goldGradient)" opacity="0.6"/>
    <circle cx="10" cy="-7" r="0.8" fill="url(#goldGradient)" opacity="0.6"/>

    <!-- Arabic letter "د" -->
    <text x="0" y="-12" font-family="Arial" font-size="4" font-weight="bold" text-anchor="middle" fill="url(#goldGradient)">د</text>
  </g>

  <!-- Vision 2030 indicator -->
  <circle cx="26" cy="6" r="2.5" fill="#FFD700" opacity="0.9"/>
  <text x="26" y="7.5" font-family="Arial" font-size="2.5" font-weight="bold" text-anchor="middle" fill="#2C5530">30</text>
</svg>